FDS_states
version=1
nRows=4
nColumns=142
inDegrees=yes

# SIMM Motion File Header:
name FDS_states
datacolumns 142
datarows 4
otherdata 1
range 2.24267150786087740000 2.24530871185220130000
endheader
time	r_z	sternoclavicular_r2	sternoclavicular_r3	unrotscap_r3	unrotscap_r2	acromioclavicular_r2	acromioclavicular_r3	acromioclavicular_r1	unrothum_r1	unrothum_r3	unrothum_r2	elv_angle	shoulder_elv	shoulder1_r2	shoulder_rot	elbow_flexion	pro_sup	deviation	flexion	wrist_hand_r1	wrist_hand_r3	r_z_u	sternoclavicular_r2_u	sternoclavicular_r3_u	unrotscap_r3_u	unrotscap_r2_u	acromioclavicular_r2_u	acromioclavicular_r3_u	acromioclavicular_r1_u	unrothum_r1_u	unrothum_r3_u	unrothum_r2_u	elv_angle_u	shoulder_elv_u	shoulder1_r2_u	shoulder_rot_u	elbow_flexion_u	pro_sup_u	deviation_u	flexion_u	wrist_hand_r1_u	wrist_hand_r3_u	DELT1.activation	DELT1.fiber_length	DELT2.activation	DELT2.fiber_length	DELT3.activation	DELT3.fiber_length	SUPSP.activation	SUPSP.fiber_length	INFSP.activation	INFSP.fiber_length	SUBSC.activation	SUBSC.fiber_length	TMIN.activation	TMIN.fiber_length	TMAJ.activation	TMAJ.fiber_length	PECM1.activation	PECM2.activation	PECM2.fiber_length	PECM3.activation	PECM3.fiber_length	LAT1.activation	LAT1.fiber_length	LAT2.activation	LAT2.fiber_length	LAT3.activation	LAT3.fiber_length	CORB.activation	CORB.fiber_length	TRIlong.activation	TRIlong.fiber_length	TRIlat.activation	TRIlat.fiber_length	TRImed.activation	TRImed.fiber_length	ANC.activation	ANC.fiber_length	SUP.activation	SUP.fiber_length	BIClong.activation	BIClong.fiber_length	BICshort.activation	BICshort.fiber_length	BRA.activation	BRA.fiber_length	BRD.activation	BRD.fiber_length	ECRL.activation	ECRL.fiber_length	ECRB.activation	ECRB.fiber_length	ECU.activation	ECU.fiber_length	FCR.activation	FCR.fiber_length	FCU.activation	FCU.fiber_length	PL.activation	PL.fiber_length	PT.activation	PT.fiber_length	PQ.activation	PQ.fiber_length	FDSL.activation	FDSL.fiber_length	FDSR.activation	FDSR.fiber_length	FDSM.activation	FDSM.fiber_length	FDSI.activation	FDSI.fiber_length	FDPL.activation	FDPL.fiber_length	FDPR.activation	FDPR.fiber_length	FDPM.activation	FDPM.fiber_length	FDPI.activation	FDPI.fiber_length	EDCL.activation	EDCL.fiber_length	EDCR.activation	EDCR.fiber_length	EDCM.activation	EDCM.fiber_length	EDCI.activation	EDCI.fiber_length	EDM.activation	EDM.fiber_length	EIP.activation	EIP.fiber_length	EPL.activation	EPL.fiber_length	EPB.activation	EPB.fiber_length	FPL.activation	FPL.fiber_length	APL.activation	APL.fiber_length
      2.24267150786087740000	     10.00000027505223200000	    -11.85885442024030900000	      5.02285102490741050000	     -5.02285102491163830000	     11.85885442006794900000	     -2.40117679241183260000	     19.40546620721928800000	      8.72262350753621090000	     -8.72262350753420000000	    -19.40546620721703200000	      2.40117679241397800000	     70.72088922598050000000	     49.00342082879819800000	    -70.72088922598318600000	      9.55269413454486300000	     22.83149026511149100000	     19.35889965687519500000	      0.00000118189354566928	     -0.00000000000079979868	      0.00000160392569394934	      0.00000000005772989501	     -0.00000000000001853838	      0.18446063832548240000	     -0.07812882048074341900	      0.07812882040504506900	     -0.18446063851190894000	      0.03734952707938440200	     -0.30184573993863928000	     -0.13567758273021033000	      0.13567758273075428000	      0.30184573994047120000	     -0.03734952707755487300	      2.31257165270464380000	     -0.76223233503293797000	     -2.31257165270701570000	     -3.61484293473036680000	    -12.35995819553783200000	      9.74152415739553310000	      0.00000000002910859425	      0.00000000005727319144	     -0.00000000005725488384	      0.00000000006593141754	      0.19292803293082375000	      0.08896845731420084700	      0.14898502957577991000	      0.08493150278098775300	      0.02200268120247395400	      0.14207924191221405000	      0.02980076937091784600	      0.06724506139841124300	      0.16451882230476980000	      0.07675306063616332800	      0.02000115919322893400	      0.08096587669697041800	      0.02743584431706033000	      0.06798954610951429800	      0.03815841396880678700	      0.14863781628245271000	      0.02000000056553558400	      0.02000000070498130300	      0.10005782820494920000	      0.02000000074683491400	      0.08193437593677865800	      0.02000002787677734900	      0.18823104880226485000	      0.02000004609637520300	      0.15965794593342872000	      0.02000001748779931300	      0.22580533597310709000	      0.02200030615701442000	      0.06796242194088431000	      0.02000003961056239300	      0.16607914975157195000	      0.02000000063374516400	      0.07959199572305798700	      0.02000000063648374100	      0.07459446374789938100	      0.02003981373701674300	      0.01213920221109004800	      0.02000905363846856900	      0.03587014728254648400	      0.07057555233923604200	      0.14490951727459817000	      0.02000000000000000000	      0.16395036703865995000	      0.14171931308177133000	      0.08753767432387799000	      0.06944277489446130900	      0.19172553702632836000	      0.06485653671603776300	      0.08606819372252985700	      0.08545305436155968500	      0.06140719080919525300	      0.08854429359279107600	      0.06355844638644807300	      0.02000000000000000000	      0.06390221645679881900	      0.02000000000000000000	      0.04560914288217082100	      0.02000000000000000000	      0.06453180757753682100	      0.08801523873299373100	      0.05355185086386034200	      0.02403688993728577200	      0.02410285260017210400	      0.02200393123571918100	      0.04905730304647183000	      0.02000000000000000000	      0.07067358750661283100	      0.02000000000000000000	      0.07230527717065575500	      0.02000000000000000000	      0.08451175464459125000	      0.02000000000000000000	      0.07407450756245023700	      0.02000000000000000000	      0.07794273726808813300	      0.02000000000000000000	      0.07415660703724849500	      0.02000000000000000000	      0.07371355502692825100	      0.02400698614858376100	      0.07657032214413427000	      0.06595055021018102200	      0.06299719135946391100	      0.04806797401995487700	      0.07561830729677088100	      0.03067257874205605800	      0.06972110970769189500	      0.03397181043465413700	      0.07417854906788029500	      0.02611288001455748500	      0.06578585111460612300	      0.02400101904410525600	      0.06260122933397449500	      0.02000000000000000000	      0.06764417316961822400	      0.02000000000000000000	      0.05968006001958566000	      0.02000000002953131500	      0.07039143005875117500
      2.24346417297762900000	     10.00000027505223200000	    -11.85870577957014400000	      5.02278806773486330000	     -5.02278806773915140000	     11.85870577939763500000	     -2.40114669569967900000	     19.40522297617835800000	      8.72251417685728470000	     -8.72251417685527390000	    -19.40522297617610200000	      2.40114669570182570000	     70.72272932976041200000	     49.00280661252892100000	    -70.72272932976309800000	      9.54977765196136910000	     22.82171218337515500000	     19.36663809156227600000	      0.00000118189356878112	     -0.00000000000075426471	      0.00000160392564857609	      0.00000000005778217733	     -0.00000000000001851562	      0.19056863028307802000	     -0.08071587759328267800	      0.08071587751721466500	     -0.19056863047055284000	      0.03858627120483699300	     -0.31184067092859563000	     -0.14017023542282195000	      0.14017023542336179000	      0.31184067093036799000	     -0.03858627120305546700	      2.33024995862589130000	     -0.78747191465560906000	     -2.33024995862825520000	     -3.74400535656466540000	    -12.31095874162736000000	      9.79137080527526220000	      0.00000000002909789800	      0.00000000005742215907	     -0.00000000005698238831	      0.00000000006568436174	      0.19312095987458869000	      0.08896804444196401700	      0.14905572306837495000	      0.08493206758012351900	      0.02200265303173296000	      0.14207918453455953000	      0.02975996624403333700	      0.06724625871098793800	      0.16451436788062537000	      0.07675233468451411700	      0.02000114708211165800	      0.08096717060127314700	      0.02743351883310751700	      0.06798845409768367000	      0.03795905475516808000	      0.14863690861923870000	      0.02000000055962695300	      0.02000000069761576400	      0.10005771453140820000	      0.02000000073903209300	      0.08193416329983097000	      0.02000002758552491300	      0.18823134116283688000	      0.02000004561476708900	      0.15965823101707372000	      0.02000001730508938600	      0.22580559758340729000	      0.02200030294031855200	      0.06796184695608861700	      0.02000003919671709800	      0.16607462172217463000	      0.02000000062712388800	      0.07958795697121251500	      0.02000000062983385600	      0.07459045266356509300	      0.02003939772264913200	      0.01213912397004833500	      0.02000895904500581100	      0.03587113855016971200	      0.07056355064710781400	      0.14491439003860729000	      0.02000000000000000000	      0.16395393562729990000	      0.14197647113677683000	      0.08753926703967340700	      0.06943468985916156900	      0.19173008509051478000	      0.06489721483508588400	      0.08607031330254712200	      0.08544949472889533400	      0.06140827105752313900	      0.08861080657186651300	      0.06355749394004379900	      0.02000000000000000000	      0.06390381117337039200	      0.02000000000000000000	      0.04561011716362416100	      0.02000000000000000000	      0.06453311036343085900	      0.08821044258117510800	      0.05355199741934046200	      0.02403650013679034200	      0.02410183280054386000	      0.02200388993103973400	      0.04905875103828486600	      0.02000000000000000000	      0.07067496776470663700	      0.02000000000000000000	      0.07230500337952447400	      0.02000000000000000000	      0.08451143409531479400	      0.02000000000000000000	      0.07407433122146955800	      0.02000000000000000000	      0.07794254887392293400	      0.02000000000000000000	      0.07415636125272180600	      0.02000000000000000000	      0.07371327515248722600	      0.02400691233499348300	      0.07656935672612187600	      0.06593134269778307100	      0.06299628528586923000	      0.04805728144359582000	      0.07561755492237781700	      0.03066754359142479300	      0.06972036010625476400	      0.03396768844545702100	      0.07417757878289092700	      0.02611246819584778200	      0.06578588972650151200	      0.02400100827736298400	      0.06260144813961596200	      0.02000000000000000000	      0.06764417316961821000	      0.02000000000000000000	      0.05968006001958566000	      0.02000000002922277700	      0.07039143005875478400
      2.24425683809438060000	     10.00000027505223200000	    -11.85855231809488700000	      5.02272306869680920000	     -5.02272306870115770000	     11.85855231792223000000	     -2.40111562287255700000	     19.40497185651960900000	      8.72240130029894090000	     -8.72240130029693010000	    -19.40497185651735300000	      2.40111562287470500000	     70.72458341178474900000	     49.00217247562210300000	    -70.72458341178743500000	      9.54675948472749350000	     22.81197378395380700000	     19.37442964255788200000	      0.00000118189359182387	     -0.00000000000070895120	      0.00000160392560292408	      0.00000000005783457867	     -0.00000000000001838663	      0.19662554771905744000	     -0.08328130194769352300	      0.08328130187208739000	     -0.19662554790638020000	      0.03981267377843267200	     -0.32175202513344081000	     -0.14462532092586039000	      0.14462532092636099000	      0.32175202513519396000	     -0.03981267377663876700	      2.34783314342320710000	     -0.81250044300398461000	     -2.34783314342558080000	     -3.87095117484493030000	    -12.25997293986004900000	      9.87324741902634880000	      0.00000000002901426086	      0.00000000005717733529	     -0.00000000005744979626	      0.00000000006583925903	      0.19329540047258364000	      0.08896761681670577200	      0.14911907257978629000	      0.08493264191727266400	      0.02200262515697726600	      0.14207911440299281000	      0.02971960564565455000	      0.06724747014349530300	      0.16450997892888022000	      0.07675158550828703500	      0.02000113509753034800	      0.08096849902734223900	      0.02743121816863169200	      0.06798732621879462200	      0.03776198893372656500	      0.14863780333038459000	      0.02000000055378005300	      0.02000000069032717800	      0.10005761216963233000	      0.02000000073131079700	      0.08193395508327321100	      0.02000002729731544000	      0.18823164161422681000	      0.02000004513819074500	      0.15965852179516035000	      0.02000001712428838400	      0.22580586326928534000	      0.02200029975741953100	      0.06796126676141069100	      0.02000003878719559800	      0.16607009272844686000	      0.02000000062057179200	      0.07958393358469559300	      0.02000000062325344600	      0.07458645687631568200	      0.02003898605570180200	      0.01213904578136587400	      0.02000886543989130100	      0.03587213118380610400	      0.07055169253379058000	      0.14491926078457198000	      0.02000000000000000000	      0.16395749460991108000	      0.14220645259226039000	      0.08754082709196242500	      0.06942670120225770400	      0.19173464172544682000	      0.06493283444954081600	      0.08607238296379431100	      0.08544597916262776400	      0.06140934857846848400	      0.08866948125119243600	      0.06355648946923855800	      0.02000000000000000000	      0.06390539908394141100	      0.02000000000000000000	      0.04561108743842028800	      0.02000000000000000000	      0.06453440684894877500	      0.08838257232202495500	      0.05355207405792641900	      0.02403611445556949600	      0.02410080868813090400	      0.02200384906034469700	      0.04906019306324914400	      0.02000000000000000000	      0.07067634187985083500	      0.02000000000000000000	      0.07230472815388734600	      0.02000000000000000000	      0.08451111224352106400	      0.02000000000000000000	      0.07407415401286812600	      0.02000000000000000000	      0.07794235958478804000	      0.02000000000000000000	      0.07415611432122094800	      0.02000000000000000000	      0.07371299375070578000	      0.02400683930131080500	      0.07656839571988741100	      0.06591236270276811000	      0.06299538950586769400	      0.04804670969717370100	      0.07561681001267667200	      0.03066256269550161900	      0.06971961383252571500	      0.03396361126086783200	      0.07417661505816410000	      0.02611206075425886700	      0.06578592850365540300	      0.02400099762437738300	      0.06260166797245060600	      0.02000000000000000000	      0.06764417316961822400	      0.02000000000000000000	      0.05968006001958568000	      0.02000000002891746300	      0.07039143005875839200
      2.24530871185220130000	     10.00000027505223200000	    -11.85834130840286500000	      5.02263369495022080000	     -5.02263369495464930000	     11.85834130823001000000	     -2.40107289770215140000	     19.40462656672122000000	      8.72224609491092910000	     -8.72224609490891820000	    -19.40462656671896400000	      2.40107289770430120000	     70.72706526672423900000	     49.00130053669945300000	    -70.72706526672692500000	      9.54259942505685820000	     22.79911513168824700000	     19.38489922888773300000	      0.00000118189362266364	     -0.00000000000064808126	      0.00000160392554121527	      0.00000000005790511598	     -0.00000000000001834635	      0.20456036619835063000	     -0.08664211655285504500	      0.08664211647764387400	     -0.20456036638737696000	      0.04141931311431815800	     -0.33473631909977125000	     -0.15046167170291802000	      0.15046167170340766000	      0.33473631910154450000	     -0.04141931311248578400	      2.37107522499502290000	     -0.84528887563439437000	     -2.37107522499741300000	     -4.03886273616517500000	    -12.18831652865188700000	     10.04502801181258700000	      0.00000000002942289428	      0.00000000005828718094	     -0.00000000005910517937	      0.00000000006721247466	      0.19350136857785241000	      0.08896705716271764700	      0.14919309675744855000	      0.08493343192171767800	      0.02200258861860030300	      0.14207900170170587000	      0.02966672164914697600	      0.06724910241413058200	      0.16450425419075623000	      0.07675055122681800900	      0.02000111938699022200	      0.08097031510647310900	      0.02742820303321910300	      0.06798577446276271600	      0.03750397274031115600	      0.14863773508289529000	      0.02000000054611537600	      0.02000000068077259800	      0.10005749387569503000	      0.02000000072118897700	      0.08193368573869123900	      0.02000002691950275600	      0.18823205294576012000	      0.02000004451344865700	      0.15965891659553214000	      0.02000001688727704900	      0.22580622233242764000	      0.02200029558525801500	      0.06796048888731701100	      0.02000003825035544900	      0.16606408248721852000	      0.02000000061198267300	      0.07957861926336257100	      0.02000000061462721100	      0.07458117915230932900	      0.02003844640454319900	      0.01213894210498542600	      0.02000874273338330800	      0.03587345217733921300	      0.07053617544111366600	      0.14492572789626568000	      0.02000000000000000000	      0.16396220827606139000	      0.14247459119538283000	      0.08754288981507948900	      0.06941624701722823300	      0.19174068583729201000	      0.06497335891584969700	      0.08607507113548511200	      0.08544138107779585000	      0.06141077450365397400	      0.08873680999476880900	      0.06355509485481990200	      0.02000000000000000000	      0.06390749567417453000	      0.02000000000000000000	      0.04561236883688399300	      0.02000000000000000000	      0.06453611749951129700	      0.08858001396393352900	      0.05355210528187762100	      0.02403560893870538800	      0.02409943435285402300	      0.02200379548682634600	      0.04906209745118374900	      0.02000000000000000000	      0.07067815582470585200	      0.02000000000000000000	      0.07230436050737844300	      0.02000000000000000000	      0.08451068277028844800	      0.02000000000000000000	      0.07407391736861830600	      0.02000000000000000000	      0.07794210684814090200	      0.02000000000000000000	      0.07415578464384467400	      0.02000000000000000000	      0.07371261777066141800	      0.02400674357501955700	      0.07656712734564340200	      0.06588752271453621200	      0.06299421596140743200	      0.04803286510643796400	      0.07561583250610930100	      0.03065603576732018800	      0.06971862869003751800	      0.03395826914279002200	      0.07417534600638153700	      0.02611152675417917300	      0.06578598023178408600	      0.02400098366135133100	      0.06260196148456061100	      0.02000000000000000000	      0.06764417316961823800	      0.02000000000000000000	      0.05968006001958566600	      0.02000000002851722700	      0.07039143005876311000
